<svg width="36" height="36" viewBox="0 0 36 36" fill="none" xmlns="http://www.w3.org/2000/svg">
<rect width="36" height="36" rx="4" fill="#02B7FA"/>
<path fill-rule="evenodd" clip-rule="evenodd" d="M11 21.5C11 21.7761 11.2239 22 11.5 22H23.2929L20.1464 25.1464C19.9512 25.3417 19.9512 25.6583 20.1464 25.8536C20.3417 26.0488 20.6583 26.0488 20.8536 25.8536L24.8536 21.8536C25.0488 21.6583 25.0488 21.3417 24.8536 21.1464L20.8536 17.1464C20.6583 16.9512 20.3417 16.9512 20.1464 17.1464C19.9512 17.3417 19.9512 17.6583 20.1464 17.8536L23.2929 21H11.5C11.2239 21 11 21.2239 11 21.5Z" fill="white"/>
<path fill-rule="evenodd" clip-rule="evenodd" d="M25 14.5C25 14.7761 24.7761 15 24.5 15H12.7071L15.8536 18.1464C16.0488 18.3417 16.0488 18.6583 15.8536 18.8536C15.6583 19.0488 15.3417 19.0488 15.1464 18.8536L11.1464 14.8536C10.9512 14.6583 10.9512 14.3417 11.1464 14.1464L15.1464 10.1464C15.3417 9.95118 15.6583 9.95118 15.8536 10.1464C16.0488 10.3417 16.0488 10.6583 15.8536 10.8536L12.7071 14H24.5C24.7761 14 25 14.2239 25 14.5Z" fill="white"/>
</svg>
