<svg width="36" height="36" viewBox="0 0 36 36" fill="none" xmlns="http://www.w3.org/2000/svg">
<rect width="36" height="36" rx="4" fill="#02B7FA"/>
<mask id="mask0_220_83" style="mask-type:alpha" maskUnits="userSpaceOnUse" x="10" y="10" width="16" height="16">
<rect x="10" y="10" width="16" height="16" fill="#D9D9D9"/>
</mask>
<g mask="url(#mask0_220_83)">
<path d="M18 19.3335C17.8111 19.3335 17.6528 19.2696 17.525 19.1418C17.3972 19.0141 17.3333 18.8557 17.3333 18.6668C17.3333 18.4779 17.3972 18.3196 17.525 18.1918C17.6528 18.0641 17.8111 18.0002 18 18.0002C18.1889 18.0002 18.3472 18.0641 18.475 18.1918C18.6028 18.3196 18.6667 18.4779 18.6667 18.6668C18.6667 18.8557 18.6028 19.0141 18.475 19.1418C18.3472 19.2696 18.1889 19.3335 18 19.3335ZM15.3333 19.3335C15.1444 19.3335 14.9861 19.2696 14.8583 19.1418C14.7306 19.0141 14.6667 18.8557 14.6667 18.6668C14.6667 18.4779 14.7306 18.3196 14.8583 18.1918C14.9861 18.0641 15.1444 18.0002 15.3333 18.0002C15.5222 18.0002 15.6806 18.0641 15.8083 18.1918C15.9361 18.3196 16 18.4779 16 18.6668C16 18.8557 15.9361 19.0141 15.8083 19.1418C15.6806 19.2696 15.5222 19.3335 15.3333 19.3335ZM20.6667 19.3335C20.4778 19.3335 20.3194 19.2696 20.1917 19.1418C20.0639 19.0141 20 18.8557 20 18.6668C20 18.4779 20.0639 18.3196 20.1917 18.1918C20.3194 18.0641 20.4778 18.0002 20.6667 18.0002C20.8556 18.0002 21.0139 18.0641 21.1417 18.1918C21.2694 18.3196 21.3333 18.4779 21.3333 18.6668C21.3333 18.8557 21.2694 19.0141 21.1417 19.1418C21.0139 19.2696 20.8556 19.3335 20.6667 19.3335ZM18 22.0002C17.8111 22.0002 17.6528 21.9363 17.525 21.8085C17.3972 21.6807 17.3333 21.5224 17.3333 21.3335C17.3333 21.1446 17.3972 20.9863 17.525 20.8585C17.6528 20.7307 17.8111 20.6668 18 20.6668C18.1889 20.6668 18.3472 20.7307 18.475 20.8585C18.6028 20.9863 18.6667 21.1446 18.6667 21.3335C18.6667 21.5224 18.6028 21.6807 18.475 21.8085C18.3472 21.9363 18.1889 22.0002 18 22.0002ZM15.3333 22.0002C15.1444 22.0002 14.9861 21.9363 14.8583 21.8085C14.7306 21.6807 14.6667 21.5224 14.6667 21.3335C14.6667 21.1446 14.7306 20.9863 14.8583 20.8585C14.9861 20.7307 15.1444 20.6668 15.3333 20.6668C15.5222 20.6668 15.6806 20.7307 15.8083 20.8585C15.9361 20.9863 16 21.1446 16 21.3335C16 21.5224 15.9361 21.6807 15.8083 21.8085C15.6806 21.9363 15.5222 22.0002 15.3333 22.0002ZM20.6667 22.0002C20.4778 22.0002 20.3194 21.9363 20.1917 21.8085C20.0639 21.6807 20 21.5224 20 21.3335C20 21.1446 20.0639 20.9863 20.1917 20.8585C20.3194 20.7307 20.4778 20.6668 20.6667 20.6668C20.8556 20.6668 21.0139 20.7307 21.1417 20.8585C21.2694 20.9863 21.3333 21.1446 21.3333 21.3335C21.3333 21.5224 21.2694 21.6807 21.1417 21.8085C21.0139 21.9363 20.8556 22.0002 20.6667 22.0002ZM13.3333 24.6668C12.9667 24.6668 12.6528 24.5363 12.3917 24.2752C12.1306 24.0141 12 23.7002 12 23.3335V14.0002C12 13.6335 12.1306 13.3196 12.3917 13.0585C12.6528 12.7974 12.9667 12.6668 13.3333 12.6668H14V11.3335H15.3333V12.6668H20.6667V11.3335H22V12.6668H22.6667C23.0333 12.6668 23.3472 12.7974 23.6083 13.0585C23.8694 13.3196 24 13.6335 24 14.0002V23.3335C24 23.7002 23.8694 24.0141 23.6083 24.2752C23.3472 24.5363 23.0333 24.6668 22.6667 24.6668H13.3333ZM13.3333 23.3335H22.6667V16.6668H13.3333V23.3335Z" fill="white"/>
</g>
</svg>
