<svg width="36" height="36" viewBox="0 0 36 36" fill="none" xmlns="http://www.w3.org/2000/svg">
<rect width="36" height="36" rx="4" fill="#02B7FA"/>
<mask id="mask0_220_1020" style="mask-type:alpha" maskUnits="userSpaceOnUse" x="10" y="10" width="16" height="16">
<rect x="10" y="10" width="16" height="16" fill="#D9D9D9"/>
</mask>
<g mask="url(#mask0_220_1020)">
<path d="M16 16.0002V14.6668H22V16.0002H16ZM16 18.0002V16.6668H22V18.0002H16ZM19.3333 24.6668V22.6168L23.0167 18.9502C23.1167 18.8502 23.2278 18.7779 23.35 18.7335C23.4722 18.6891 23.5944 18.6668 23.7167 18.6668C23.85 18.6668 23.9778 18.6918 24.1 18.7418C24.2222 18.7918 24.3333 18.8668 24.4333 18.9668L25.05 19.5835C25.1389 19.6835 25.2083 19.7946 25.2583 19.9168C25.3083 20.0391 25.3333 20.1613 25.3333 20.2835C25.3333 20.4057 25.3111 20.5307 25.2667 20.6585C25.2222 20.7863 25.15 20.9002 25.05 21.0002L21.3833 24.6668H19.3333ZM23.7167 20.9335L24.3333 20.2835L23.7167 19.6668L23.0833 20.3002L23.7167 20.9335ZM14 24.6668C13.4444 24.6668 12.9722 24.4724 12.5833 24.0835C12.1944 23.6946 12 23.2224 12 22.6668V20.6668H14V11.3335H24V17.3502C23.7778 17.3279 23.5528 17.3363 23.325 17.3752C23.0972 17.4141 22.8778 17.4835 22.6667 17.5835V12.6668H15.3333V20.6668H19.3333L18 22.0002V24.6668H14Z" fill="white"/>
</g>
</svg>
