<svg width="36" height="36" viewBox="0 0 36 36" fill="none" xmlns="http://www.w3.org/2000/svg">
<rect width="36" height="36" rx="4" fill="#02B7FA"/>
<mask id="mask0_220_282" style="mask-type:alpha" maskUnits="userSpaceOnUse" x="10" y="10" width="16" height="16">
<rect x="10" y="10" width="16" height="16" fill="#D9D9D9"/>
</mask>
<g mask="url(#mask0_220_282)">
<path d="M18 17.3333C19.6667 17.3333 21.0833 17.0722 22.25 16.55C23.4167 16.0278 24 15.4 24 14.6667C24 13.9333 23.4167 13.3056 22.25 12.7833C21.0833 12.2611 19.6667 12 18 12C16.3333 12 14.9167 12.2611 13.75 12.7833C12.5833 13.3056 12 13.9333 12 14.6667C12 15.4 12.5833 16.0278 13.75 16.55C14.9167 17.0722 16.3333 17.3333 18 17.3333ZM18 19C18.4556 19 19.025 18.9528 19.7083 18.8583C20.3917 18.7639 21.05 18.6111 21.6833 18.4C22.3167 18.1889 22.8611 17.9139 23.3167 17.575C23.7722 17.2361 24 16.8222 24 16.3333V18C24 18.4889 23.7722 18.9028 23.3167 19.2417C22.8611 19.5806 22.3167 19.8556 21.6833 20.0667C21.05 20.2778 20.3917 20.4306 19.7083 20.525C19.025 20.6194 18.4556 20.6667 18 20.6667C17.5444 20.6667 16.975 20.6194 16.2917 20.525C15.6083 20.4306 14.95 20.2778 14.3167 20.0667C13.6833 19.8556 13.1389 19.5806 12.6833 19.2417C12.2278 18.9028 12 18.4889 12 18V16.3333C12 16.8222 12.2278 17.2361 12.6833 17.575C13.1389 17.9139 13.6833 18.1889 14.3167 18.4C14.95 18.6111 15.6083 18.7639 16.2917 18.8583C16.975 18.9528 17.5444 19 18 19ZM18 22.3333C18.4556 22.3333 19.025 22.2861 19.7083 22.1917C20.3917 22.0972 21.05 21.9444 21.6833 21.7333C22.3167 21.5222 22.8611 21.2472 23.3167 20.9083C23.7722 20.5694 24 20.1556 24 19.6667V21.3333C24 21.8222 23.7722 22.2361 23.3167 22.575C22.8611 22.9139 22.3167 23.1889 21.6833 23.4C21.05 23.6111 20.3917 23.7639 19.7083 23.8583C19.025 23.9528 18.4556 24 18 24C17.5444 24 16.975 23.9528 16.2917 23.8583C15.6083 23.7639 14.95 23.6111 14.3167 23.4C13.6833 23.1889 13.1389 22.9139 12.6833 22.575C12.2278 22.2361 12 21.8222 12 21.3333V19.6667C12 20.1556 12.2278 20.5694 12.6833 20.9083C13.1389 21.2472 13.6833 21.5222 14.3167 21.7333C14.95 21.9444 15.6083 22.0972 16.2917 22.1917C16.975 22.2861 17.5444 22.3333 18 22.3333Z" fill="white"/>
</g>
</svg>
