<svg width="810" height="40" viewBox="0 0 810 40" fill="none" xmlns="http://www.w3.org/2000/svg">
<path fill-rule="evenodd" clip-rule="evenodd" d="M45.7582 15.016C45.7582 15.7234 44.9751 16.3343 43.9744 16.3343C42.9738 16.3343 42.1907 15.7556 42.1907 15.016C42.1907 14.2765 42.9303 13.6977 43.9744 13.6977C45.0186 13.762 45.7582 14.3408 45.7582 15.016ZM38.492 17.6525C38.492 17.7811 38.492 17.974 38.492 17.974C38.492 17.974 37.6654 17.1702 35.8816 17.1702C32.9232 17.1702 30.6174 18.8422 30.6174 21.1251C30.6174 23.4081 32.8797 25.0801 35.8816 25.0801C37.7089 25.0801 38.492 24.2441 38.492 24.2441V24.5978C38.492 24.7586 38.666 24.8872 38.8835 24.8872H41.0588V17.3631C41.0588 17.3631 39.0575 17.3631 38.8835 17.3631C38.666 17.3631 38.492 17.5239 38.492 17.6525ZM38.4923 22.4752C38.1007 22.9254 37.2741 23.3112 36.317 23.3112C34.5768 23.3112 33.2716 22.5073 33.2716 21.1569C33.2716 19.8064 34.6203 19.0025 36.317 19.0025C37.2741 19.0025 38.1443 19.3884 38.4923 19.8385V22.4752ZM42.7126 17.3624H45.323V24.8865H42.7126V17.3624ZM81.5632 17.1704C79.7795 17.1704 78.9529 17.9743 78.9529 17.9743V13.762H76.3425V24.9196C76.3425 24.9196 78.3438 24.9196 78.5178 24.9196C78.7353 24.9196 78.9094 24.791 78.9094 24.6302V24.2765C78.9094 24.2765 79.736 25.1125 81.5197 25.1125C84.4781 25.1125 86.7839 23.4405 86.7839 21.1575C86.8274 18.8424 84.5216 17.1704 81.5632 17.1704ZM81.1283 23.2794C80.1277 23.2794 79.3446 22.8935 78.953 22.4434V19.7424C79.3446 19.3566 80.2147 18.9064 81.1283 18.9064C82.8685 18.9064 84.1737 19.7103 84.1737 21.0607C84.1737 22.4112 82.8685 23.2794 81.1283 23.2794ZM74.9929 20.4499V24.9515H72.3825V20.675C72.3825 19.421 71.8605 18.9387 70.3813 18.9387C69.5982 18.9387 68.7716 19.228 68.2495 19.6782V24.9194H65.6391V17.3631H67.6839C67.9014 17.3631 68.0755 17.4917 68.0755 17.6525V17.974C68.8151 17.3952 69.8592 17.1702 70.8598 17.1702C71.991 17.1702 72.9481 17.3952 73.6877 17.8776C74.6448 18.4563 74.9929 19.1637 74.9929 20.4499ZM59.3318 17.1704C57.5481 17.1704 56.7215 17.9743 56.7215 17.9743V13.762H54.1111V24.9196C54.1111 24.9196 56.1124 24.9196 56.2864 24.9196C56.504 24.9196 56.678 24.791 56.678 24.6302V24.2765C56.678 24.2765 57.5046 25.1125 59.2883 25.1125C62.2467 25.1125 64.5525 23.4405 64.5525 21.1575C64.596 18.8424 62.2902 17.1704 59.3318 17.1704ZM58.8969 23.2794C57.8963 23.2794 57.1132 22.8935 56.7216 22.4434V19.7424C57.1132 19.3566 57.9833 18.9064 58.8969 18.9064C60.6372 18.9064 61.9423 19.7103 61.9423 21.0607C61.9423 22.4112 60.6372 23.2794 58.8969 23.2794ZM51.8486 17.1702C52.6317 17.1702 53.0233 17.2666 53.0233 17.2666V19.0351C53.0233 19.0351 50.848 18.4885 49.4993 19.646V24.9194H46.889V17.3631C46.889 17.3631 48.8902 17.3631 49.0642 17.3631C49.2818 17.3631 49.4558 17.4917 49.4558 17.6525V17.974C49.9779 17.556 51.0655 17.1702 51.8486 17.1702ZM24.8316 24.2444C24.7011 24.0193 24.5705 23.7299 24.44 23.537C24.2225 23.1833 24.005 22.8296 23.8309 22.508L23.7874 22.4759C21.9167 19.4855 19.9154 16.4309 17.7836 13.4084L17.6966 13.2797C17.4791 12.9904 17.2616 12.6688 17.044 12.3473C16.783 11.9936 16.522 11.6077 16.0869 11.254C15.2168 10.4502 13.9551 10 12.6499 10C11.3013 10 10.0831 10.4502 9.16947 11.1897C8.73441 11.5756 8.42987 11.9293 8.16884 12.3151C7.95131 12.6367 7.73378 12.9582 7.51625 13.2476L7.42924 13.3762C5.34096 16.3666 3.29618 19.4212 1.42543 22.4437L1.38192 22.4759C1.2079 22.7974 0.990369 23.1511 0.77284 23.5048C0.642323 23.7299 0.511805 23.955 0.381287 24.2122C0.0332405 24.9518 -0.0972771 25.6592 0.0767464 26.3666C0.381287 27.8778 1.72997 29.1318 3.60072 29.6785C4.29681 29.9035 5.03641 30 5.77601 30C5.99354 30 6.25458 29.9678 6.47211 29.9678C7.38573 29.9035 8.29935 29.6785 9.16947 29.2926C10.3006 28.8424 11.3448 28.1672 12.5194 27.2026C13.6941 28.1672 14.7817 28.8103 15.8694 29.2926C16.783 29.6785 17.6966 29.9035 18.5667 29.9678C18.7843 30 19.0453 30 19.2628 30C20.0024 30 20.7855 29.9035 21.4381 29.6785C23.3524 29.1318 24.6576 27.8457 24.9621 26.3666C25.2666 25.6592 25.1796 24.9839 24.8316 24.2444ZM12.6073 25.2732C11.1281 23.9227 10.2145 22.6365 9.86645 21.5433C9.73594 21.0931 9.69243 20.6751 9.77944 20.3214C9.82295 19.9999 9.99697 19.7105 10.2145 19.4854C10.7366 18.9388 11.6067 18.6172 12.6073 18.6172C13.608 18.6172 14.5216 18.9388 15.0001 19.4854C15.2177 19.7105 15.3917 19.9999 15.4352 20.3214C15.5222 20.6751 15.4787 21.0931 15.3482 21.5433C15.0001 22.6044 14.043 23.8905 12.6073 25.2732ZM23.3953 26.2054C23.2212 27.2343 22.2641 28.1347 20.9154 28.5527C20.2628 28.7456 19.5667 28.8099 18.8707 28.7456C18.1746 28.6813 17.522 28.5205 16.8259 28.2311C15.8687 27.8453 14.8681 27.2022 13.737 26.3019C15.5207 24.6941 16.6083 23.1829 16.9999 21.8646C17.1739 21.2536 17.2174 20.6749 17.1304 20.1604C17.0434 19.6459 16.7824 19.1958 16.3908 18.8099C15.5642 17.9096 14.1285 17.3951 12.5623 17.3951C10.9961 17.3951 9.5604 17.9417 8.73379 18.8099C8.34223 19.1958 8.12471 19.6781 7.99419 20.1604C7.90718 20.6749 7.90718 21.2536 8.12471 21.8646C8.51626 23.1829 9.64741 24.6941 11.3876 26.3019C10.2565 27.2343 9.25586 27.8453 8.29873 28.2311C7.60264 28.5205 6.90654 28.6813 6.25395 28.7456C5.51435 28.8099 4.81826 28.7134 4.20918 28.5527C2.8605 28.1668 1.94687 27.2343 1.72934 26.2054C1.64233 25.6909 1.68584 25.2086 1.99038 24.6298C2.07739 24.4369 2.20791 24.244 2.33843 23.9868C2.51245 23.6652 2.72998 23.3115 2.94751 22.99L2.99101 22.9578C4.86177 19.9675 6.86304 16.9128 8.95132 13.9546L9.03833 13.826C9.25586 13.5366 9.47339 13.2151 9.69092 12.8935C9.90845 12.572 10.1695 12.2826 10.4305 12.0253C10.9961 11.543 11.7792 11.2858 12.6058 11.2858C13.4324 11.2858 14.2155 11.543 14.7811 12.0253C15.0856 12.2826 15.3032 12.572 15.5207 12.8935C15.7382 13.1829 15.9558 13.5044 16.1733 13.826L16.2603 13.9546C18.3051 16.945 20.3063 19.9996 22.1771 22.9578V22.99C22.3946 23.3115 22.5686 23.6652 22.7862 23.9868C22.9167 24.2118 23.0472 24.4369 23.1342 24.6298C23.4388 25.1765 23.5258 25.6909 23.3953 26.2054Z" fill="#AEC8D2"/>
<path fill-rule="evenodd" clip-rule="evenodd" d="M192.068 17.0476H201.61C201.61 17.0476 201.779 17.5556 201.779 18.4444C201.779 22.6665 197.708 25.4919 192.153 25.4919C185.835 25.4919 181.552 21.6507 181.552 17.7143C181.552 13.6826 186.089 9.96846 191.984 10.0002C196.606 10.0002 199.15 12.0954 199.15 12.0954L197.2 13.6192C197.2 13.6192 195.334 12.0954 192.111 12.0954C187.955 12.0954 184.647 14.5715 184.647 17.7778C184.647 21.0475 188.125 23.3967 192.111 23.3967C195.206 23.3967 198.514 22.0951 198.853 19.1428H192.068V17.0476ZM209.37 15.492C205.469 15.492 202.67 17.7776 202.67 20.4442C202.67 23.1743 205.384 25.4917 209.455 25.4917C213.144 25.4917 216.113 23.4283 216.113 20.5077C216.07 17.2062 212.593 15.492 209.37 15.492ZM209.413 17.4916C211.321 17.4916 213.145 18.6662 213.145 20.5074C213.145 22.3486 211.364 23.5232 209.413 23.5232C207.293 23.5232 205.639 22.2534 205.639 20.4756C205.597 18.7614 207.251 17.4916 209.413 17.4916ZM217.259 20.444C217.259 17.7774 220.058 15.4918 223.959 15.4918C227.182 15.4918 230.659 17.206 230.701 20.5075C230.701 23.4281 227.733 25.4915 224.044 25.4915C219.973 25.4915 217.259 23.1741 217.259 20.444ZM227.733 20.5074C227.733 18.6662 225.91 17.4916 224.001 17.4916C221.839 17.4916 220.185 18.7614 220.227 20.4756C220.227 22.2534 221.881 23.5232 224.001 23.5232C225.952 23.5232 227.733 22.3486 227.733 20.5074ZM238.249 15.5241C234.645 15.5241 231.846 17.8732 231.846 20.5081C231.846 23.4921 235.111 25.5238 238.164 25.5238C240.073 25.5238 241.048 24.9842 241.854 24.3175V25.3016C241.854 27.0159 240.454 28.0635 238.334 28.0635C236.298 28.0635 235.281 26.9206 234.899 26.2857L232.312 27.0794C233.203 28.5079 235.026 29.9999 238.292 29.9999C241.854 29.9999 244.568 28.3174 244.568 24.7937V15.8098H241.769V16.6669C241.006 15.9685 239.818 15.5241 238.249 15.5241ZM238.504 17.4924C240.243 17.4924 242.066 18.6352 242.066 20.5399C242.066 22.5081 240.285 23.5557 238.461 23.5557C236.553 23.5557 234.772 22.3811 234.772 20.5717C234.815 18.6035 236.638 17.4924 238.504 17.4924ZM250.886 20.4758C250.886 17.4917 253.727 15.4918 257.119 15.4918C259.749 15.4918 261.742 16.8251 262.632 18.3488L263.099 19.1742L254.151 21.9678C254.702 22.7297 255.55 23.4916 257.416 23.4916C259.07 23.4916 260.088 22.8249 260.682 22.1265L263.014 23.3011C261.996 24.3169 260.215 25.4915 257.416 25.4915C254.066 25.4915 250.886 23.6185 250.886 20.4758ZM259.706 18.5071C259.282 17.9039 258.434 17.4277 257.204 17.4277C255.296 17.4277 253.43 18.9198 253.769 20.38L259.706 18.5071ZM249.572 25.2068H246.646V10.477H249.572V25.2068Z" fill="#AEC8D2"/>
<path fill-rule="evenodd" clip-rule="evenodd" d="M377.725 13.6733C377.79 13.6762 377.831 13.6778 377.843 13.6778C377.938 13.6778 378.079 13.7128 378.079 13.8179C378.117 13.9018 379.93 23.0258 380.661 26.7033L380.961 28.2141L380.913 28.2216L372.79 29.51L372.792 29.4688L357.866 27.4085C357.866 27.4085 359.755 16.3399 359.85 15.9896C359.942 15.4761 359.989 15.4645 360.653 15.3008L360.7 15.2891C360.794 15.2891 361.739 15.0789 363.061 14.7637C363.581 13.1524 365.187 10 368.587 10C369.012 10 369.532 10.2102 369.957 10.5955H370.051C371.515 10.5955 372.318 11.5062 372.79 12.522C373.263 12.4169 373.593 12.3468 373.593 12.3468C373.608 12.3468 373.629 12.3459 373.655 12.3449C373.725 12.3419 373.827 12.3376 373.926 12.3468C373.993 12.3473 374.059 12.3651 374.109 12.3879C374.128 12.3961 374.145 12.4057 374.16 12.4169L375.719 13.5728C375.719 13.5728 377.274 13.6532 377.725 13.6733ZM371.987 12.7326C371.746 12.7995 371.486 12.8523 371.207 12.9089L371.207 12.9089L371.207 12.9089C371.048 12.9411 370.883 12.9747 370.712 13.0129V12.8027C370.712 12.1722 370.57 11.6818 370.381 11.2965C371.184 11.3315 371.703 11.9971 371.987 12.7326ZM369.862 13.1172C369.862 12.3817 369.72 11.8212 369.531 11.4359C368.681 11.6811 367.737 12.3817 367.264 13.8178C368.162 13.6076 369.059 13.3975 369.862 13.2223V13.1172ZM368.493 10.7356C368.635 10.7356 368.777 10.7707 368.918 10.8407C367.832 11.226 366.651 12.1718 366.179 14.0983C365.626 14.2349 365.073 14.3503 364.543 14.4609L364.542 14.461L364.542 14.4612C364.393 14.4922 364.246 14.5229 364.101 14.5536C364.715 13.0825 366.085 10.7356 368.493 10.7356ZM370.098 17.0056L369.107 19.2123C369.107 19.2123 368.209 18.862 367.17 18.862C365.612 18.862 365.517 19.5976 365.517 19.7727C365.517 20.1758 366.075 20.4796 366.748 20.8461C367.771 21.4032 369.059 22.1051 369.059 23.5206C369.059 25.3771 367.454 26.568 365.328 26.568C362.778 26.568 361.455 25.3771 361.455 25.3771L362.117 23.6958C362.117 23.6958 363.486 24.5715 364.62 24.5715C365.375 24.5715 365.659 24.1511 365.659 23.8009C365.659 23.2164 365.094 22.8818 364.461 22.5065C363.652 22.0271 362.731 21.4812 362.731 20.2631C362.731 18.4417 364.478 16.6904 368.067 16.6904C369.437 16.6904 370.098 17.0056 370.098 17.0056ZM438.863 17.811H441.082L440.657 19.5274H438.437L436.737 26.1475H433.526L435.226 19.5624H433.715L434.187 17.776H435.698L435.793 17.3907C436.029 16.4099 436.548 15.4292 437.635 14.7286C438.485 14.1682 439.618 13.923 440.752 13.923C441.932 13.923 442.499 14.1332 442.499 14.1332L441.885 15.9896C441.885 15.9896 441.413 15.8845 440.846 15.8845C439.807 15.8845 439.146 16.6201 438.957 17.4257L438.863 17.811ZM401.883 17.6359C400.466 17.6359 399.38 18.1263 398.482 18.8969H398.435L399.663 14.0982H396.451L393.334 26.2176H396.546L397.632 22.0844C398.057 20.5081 399.143 19.5624 400.135 19.5624C400.844 19.5624 401.127 19.9127 401.127 20.4381C401.127 20.7533 401.08 21.1737 400.985 21.4889L399.757 26.2176H403.016L404.291 21.3138C404.433 20.7884 404.527 20.1929 404.527 19.7726C404.48 18.4415 403.536 17.6359 401.883 17.6359ZM390.453 21.1386C389.651 20.8234 389.226 20.5431 389.226 20.1578C389.226 19.6675 389.792 19.3522 390.737 19.3522C391.776 19.3522 392.72 19.6675 392.72 19.6675L393.476 17.9862C393.476 17.9862 392.815 17.6009 390.784 17.6009C387.998 17.6009 386.061 18.7918 386.061 20.4381C386.061 21.3838 386.959 22.1194 388.187 22.6097C389.178 23.0301 389.509 23.3103 389.509 23.7306C389.509 24.186 389.037 24.5362 388.092 24.5362C386.722 24.5362 385.494 24.0108 385.494 24.0108L384.692 25.6921C384.692 25.6921 385.872 26.2876 387.856 26.2876C390.737 26.2876 392.768 25.2368 392.768 23.3453C392.72 22.3996 391.681 21.699 390.453 21.1386ZM405.33 23.065C405.33 20.2278 407.881 17.6358 411.706 17.6358C414.682 17.6358 416.051 19.212 416.051 20.9634C416.051 23.8706 413.501 26.3926 409.723 26.3926C406.842 26.3926 405.33 24.9215 405.33 23.065ZM410.147 24.5357C409.061 24.5357 408.588 23.8351 408.588 22.9945C408.588 21.6284 409.533 19.4217 411.28 19.4217C412.414 19.4217 412.792 20.1573 412.792 20.8578C412.744 22.2939 411.8 24.5357 410.147 24.5357ZM420.821 19.0369C420.821 19.0369 422.049 17.6358 424.221 17.6358C426.535 17.6358 427.48 19.0369 427.48 20.6482C427.48 23.5554 425.024 26.3926 421.293 26.3926C420.065 26.3926 419.404 26.0774 419.404 26.0774H419.357L418.459 29.5801H415.295L417.467 20.9284C417.751 19.9476 417.987 18.6516 418.129 17.7759H420.962L420.773 19.0369H420.821ZM421.152 24.5363C420.302 24.5363 419.83 24.186 419.83 24.186L420.349 21.9793C420.727 20.5081 421.766 19.5274 422.852 19.5274C423.844 19.5274 424.127 20.1929 424.127 20.8234C424.175 22.3996 422.947 24.5363 421.152 24.5363ZM430.22 15.5691C430.22 14.7985 431.023 14.2031 432.062 14.2031C433.007 14.2031 433.668 14.7285 433.668 15.394C433.62 16.2697 432.77 16.76 431.779 16.76H431.731C430.834 16.76 430.22 16.2697 430.22 15.5691ZM427.575 26.1472H430.786L432.959 17.7407H429.747L427.575 26.1472ZM448.734 17.8106C448.734 17.8106 446.75 21.5585 445.853 23.5901H445.806C445.758 22.9246 445.003 17.8106 445.003 17.8106H441.649L443.586 25.5166C443.633 25.6917 443.586 25.7968 443.539 25.9019C443.161 26.4273 442.547 26.9527 441.791 27.338C441.177 27.6532 440.516 27.8634 439.996 28.0035L440.894 30C441.555 29.8949 442.877 29.5096 444.011 28.704C445.475 27.6882 446.797 26.112 448.214 24.0104L452.134 17.8106H448.734Z" fill="#AEC8D2"/>
<path fill-rule="evenodd" clip-rule="evenodd" d="M557.418 17.0476H566.959C566.959 17.0476 567.129 17.5556 567.129 18.4444C567.129 22.6665 563.058 25.4919 557.503 25.4919C551.184 25.4919 546.901 21.6507 546.901 17.7143C546.901 13.6826 551.439 9.96846 557.333 10.0002C561.955 10.0002 564.5 12.0954 564.5 12.0954L562.549 13.6192C562.549 13.6192 560.683 12.0954 557.46 12.0954C553.305 12.0954 549.997 14.5715 549.997 17.7778C549.997 21.0475 553.474 23.3967 557.46 23.3967C560.556 23.3967 563.864 22.0951 564.203 19.1428H557.418V17.0476ZM574.72 15.492C570.818 15.492 568.02 17.7776 568.02 20.4442C568.02 23.1743 570.733 25.4917 574.804 25.4917C578.494 25.4917 581.462 23.4283 581.462 20.5077C581.42 17.2062 577.942 15.492 574.72 15.492ZM574.763 17.4916C576.671 17.4916 578.495 18.6662 578.495 20.5074C578.495 22.3486 576.713 23.5232 574.763 23.5232C572.643 23.5232 570.989 22.2534 570.989 20.4756C570.946 18.7614 572.6 17.4916 574.763 17.4916ZM582.608 20.444C582.608 17.7774 585.407 15.4918 589.308 15.4918C592.531 15.4918 596.009 17.206 596.051 20.5075C596.051 23.4281 593.083 25.4915 589.393 25.4915C585.322 25.4915 582.608 23.1741 582.608 20.444ZM593.083 20.5074C593.083 18.6662 591.259 17.4916 589.351 17.4916C587.188 17.4916 585.534 18.7614 585.577 20.4756C585.577 22.2534 587.231 23.5232 589.351 23.5232C591.302 23.5232 593.083 22.3486 593.083 20.5074ZM603.599 15.5241C599.994 15.5241 597.195 17.8732 597.195 20.5081C597.195 23.4921 600.461 25.5238 603.514 25.5238C605.422 25.5238 606.398 24.9842 607.203 24.3175V25.3016C607.203 27.0159 605.804 28.0635 603.684 28.0635C601.648 28.0635 600.63 26.9206 600.249 26.2857L597.662 27.0794C598.552 28.5079 600.376 29.9999 603.641 29.9999C607.203 29.9999 609.917 28.3174 609.917 24.7937V15.8098H607.118V16.6669C606.355 15.9685 605.168 15.5241 603.599 15.5241ZM603.853 17.4924C605.592 17.4924 607.416 18.6352 607.416 20.5399C607.416 22.5081 605.635 23.5557 603.811 23.5557C601.903 23.5557 600.122 22.3811 600.122 20.5717C600.164 18.6035 601.988 17.4924 603.853 17.4924ZM616.235 20.4758C616.235 17.4917 619.077 15.4918 622.469 15.4918C625.098 15.4918 627.091 16.8251 627.982 18.3488L628.448 19.1742L619.501 21.9678C620.052 22.7297 620.9 23.4916 622.766 23.4916C624.42 23.4916 625.437 22.8249 626.031 22.1265L628.363 23.3011C627.346 24.3169 625.565 25.4915 622.766 25.4915C619.416 25.4915 616.235 23.6185 616.235 20.4758ZM625.056 18.5071C624.631 17.9039 623.783 17.4277 622.554 17.4277C620.645 17.4277 618.779 18.9198 619.119 20.38L625.056 18.5071ZM614.921 25.2068H611.995V10.477H614.921V25.2068Z" fill="#AEC8D2"/>
<path fill-rule="evenodd" clip-rule="evenodd" d="M768.974 15.016C768.974 15.7234 768.191 16.3343 767.19 16.3343C766.19 16.3343 765.407 15.7556 765.407 15.016C765.407 14.2765 766.146 13.6977 767.19 13.6977C768.234 13.762 768.974 14.3408 768.974 15.016ZM761.708 17.6525C761.708 17.7811 761.708 17.974 761.708 17.974C761.708 17.974 760.881 17.1702 759.097 17.1702C756.139 17.1702 753.833 18.8422 753.833 21.1251C753.833 23.4081 756.096 25.0801 759.097 25.0801C760.925 25.0801 761.708 24.2441 761.708 24.2441V24.5978C761.708 24.7586 761.882 24.8872 762.099 24.8872H764.275V17.3631C764.275 17.3631 762.273 17.3631 762.099 17.3631C761.882 17.3631 761.708 17.5239 761.708 17.6525ZM761.708 22.4752C761.317 22.9254 760.49 23.3112 759.533 23.3112C757.793 23.3112 756.487 22.5073 756.487 21.1569C756.487 19.8064 757.836 19.0025 759.533 19.0025C760.49 19.0025 761.36 19.3884 761.708 19.8385V22.4752ZM765.928 17.3624H768.539V24.8865H765.928V17.3624ZM804.779 17.1704C802.995 17.1704 802.169 17.9743 802.169 17.9743V13.762H799.558V24.9196C799.558 24.9196 801.56 24.9196 801.734 24.9196C801.951 24.9196 802.125 24.791 802.125 24.6302V24.2765C802.125 24.2765 802.952 25.1125 804.736 25.1125C807.694 25.1125 810 23.4405 810 21.1575C810.043 18.8424 807.737 17.1704 804.779 17.1704ZM804.344 23.2794C803.343 23.2794 802.56 22.8935 802.169 22.4434V19.7424C802.56 19.3566 803.431 18.9064 804.344 18.9064C806.084 18.9064 807.39 19.7103 807.39 21.0607C807.39 22.4112 806.084 23.2794 804.344 23.2794ZM798.209 20.4499V24.9515H795.598V20.675C795.598 19.421 795.076 18.9387 793.597 18.9387C792.814 18.9387 791.987 19.228 791.465 19.6782V24.9194H788.855V17.3631H790.9C791.117 17.3631 791.291 17.4917 791.291 17.6525V17.974C792.031 17.3952 793.075 17.1702 794.076 17.1702C795.207 17.1702 796.164 17.3952 796.904 17.8776C797.861 18.4563 798.209 19.1637 798.209 20.4499ZM782.548 17.1704C780.764 17.1704 779.937 17.9743 779.937 17.9743V13.762H777.327V24.9196C777.327 24.9196 779.328 24.9196 779.502 24.9196C779.72 24.9196 779.894 24.791 779.894 24.6302V24.2765C779.894 24.2765 780.72 25.1125 782.504 25.1125C785.463 25.1125 787.768 23.4405 787.768 21.1575C787.812 18.8424 785.506 17.1704 782.548 17.1704ZM782.113 23.2794C781.112 23.2794 780.329 22.8935 779.937 22.4434V19.7424C780.329 19.3566 781.199 18.9064 782.113 18.9064C783.853 18.9064 785.158 19.7103 785.158 21.0607C785.158 22.4112 783.853 23.2794 782.113 23.2794ZM775.064 17.1702C775.848 17.1702 776.239 17.2666 776.239 17.2666V19.0351C776.239 19.0351 774.064 18.4885 772.715 19.646V24.9194H770.105V17.3631C770.105 17.3631 772.106 17.3631 772.28 17.3631C772.498 17.3631 772.672 17.4917 772.672 17.6525V17.974C773.194 17.556 774.281 17.1702 775.064 17.1702ZM748.047 24.2444C747.917 24.0193 747.786 23.7299 747.656 23.537C747.438 23.1833 747.221 22.8296 747.047 22.508L747.003 22.4759C745.133 19.4855 743.131 16.4309 740.999 13.4084L740.912 13.2797C740.695 12.9904 740.477 12.6688 740.26 12.3473C739.999 11.9936 739.738 11.6077 739.303 11.254C738.433 10.4502 737.171 10 735.866 10C734.517 10 733.299 10.4502 732.385 11.1897C731.95 11.5756 731.646 11.9293 731.385 12.3151C731.167 12.6367 730.95 12.9582 730.732 13.2476L730.645 13.3762C728.557 16.3666 726.512 19.4212 724.641 22.4437L724.598 22.4759C724.424 22.7974 724.206 23.1511 723.989 23.5048C723.858 23.7299 723.728 23.955 723.597 24.2122C723.249 24.9518 723.119 25.6592 723.293 26.3666C723.597 27.8778 724.946 29.1318 726.817 29.6785C727.513 29.9035 728.252 30 728.992 30C729.209 30 729.47 29.9678 729.688 29.9678C730.602 29.9035 731.515 29.6785 732.385 29.2926C733.516 28.8424 734.561 28.1672 735.735 27.2026C736.91 28.1672 737.998 28.8103 739.085 29.2926C739.999 29.6785 740.912 29.9035 741.783 29.9678C742 30 742.261 30 742.479 30C743.218 30 744.001 29.9035 744.654 29.6785C746.568 29.1318 747.873 27.8457 748.178 26.3666C748.482 25.6592 748.395 24.9839 748.047 24.2444ZM735.823 25.2732C734.344 23.9227 733.43 22.6365 733.082 21.5433C732.952 21.0931 732.908 20.6751 732.995 20.3214C733.039 19.9999 733.213 19.7105 733.43 19.4854C733.952 18.9388 734.823 18.6172 735.823 18.6172C736.824 18.6172 737.737 18.9388 738.216 19.4854C738.433 19.7105 738.608 19.9999 738.651 20.3214C738.738 20.6751 738.695 21.0931 738.564 21.5433C738.216 22.6044 737.259 23.8905 735.823 25.2732ZM746.611 26.2054C746.437 27.2343 745.48 28.1347 744.131 28.5527C743.479 28.7456 742.783 28.8099 742.086 28.7456C741.39 28.6813 740.738 28.5205 740.042 28.2311C739.085 27.8453 738.084 27.2022 736.953 26.3019C738.737 24.6941 739.824 23.1829 740.216 21.8646C740.39 21.2536 740.433 20.6749 740.346 20.1604C740.259 19.6459 739.998 19.1958 739.607 18.8099C738.78 17.9096 737.344 17.3951 735.778 17.3951C734.212 17.3951 732.776 17.9417 731.95 18.8099C731.558 19.1958 731.341 19.6781 731.21 20.1604C731.123 20.6749 731.123 21.2536 731.341 21.8646C731.732 23.1829 732.863 24.6941 734.603 26.3019C733.472 27.2343 732.472 27.8453 731.515 28.2311C730.818 28.5205 730.122 28.6813 729.47 28.7456C728.73 28.8099 728.034 28.7134 727.425 28.5527C726.076 28.1668 725.163 27.2343 724.945 26.2054C724.858 25.6909 724.902 25.2086 725.206 24.6298C725.293 24.4369 725.424 24.244 725.554 23.9868C725.728 23.6652 725.946 23.3115 726.163 22.99L726.207 22.9578C728.078 19.9675 730.079 16.9128 732.167 13.9546L732.254 13.826C732.472 13.5366 732.689 13.2151 732.907 12.8935C733.124 12.572 733.385 12.2826 733.646 12.0253C734.212 11.543 734.995 11.2858 735.822 11.2858C736.648 11.2858 737.431 11.543 737.997 12.0253C738.301 12.2826 738.519 12.572 738.737 12.8935C738.954 13.1829 739.172 13.5044 739.389 13.826L739.476 13.9546C741.521 16.945 743.522 19.9996 745.393 22.9578V22.99C745.61 23.3115 745.784 23.6652 746.002 23.9868C746.133 24.2118 746.263 24.4369 746.35 24.6298C746.655 25.1765 746.742 25.6909 746.611 26.2054Z" fill="#AEC8D2"/>
</svg>
