<svg width="36" height="36" viewBox="0 0 36 36" fill="none" xmlns="http://www.w3.org/2000/svg">
<rect width="36" height="36" rx="4" fill="#02B7FA"/>
<mask id="mask0_220_593" style="mask-type:alpha" maskUnits="userSpaceOnUse" x="10" y="10" width="16" height="16">
<rect x="10" y="10" width="16" height="16" fill="#D9D9D9"/>
</mask>
<g mask="url(#mask0_220_593)">
<path d="M13.3333 24C12.9667 24 12.6528 23.8694 12.3917 23.6083C12.1306 23.3472 12 23.0333 12 22.6667V13.3333C12 12.9667 12.1306 12.6528 12.3917 12.3917C12.6528 12.1306 12.9667 12 13.3333 12H22.6667C23.0333 12 23.3472 12.1306 23.6083 12.3917C23.8694 12.6528 24 12.9667 24 13.3333V18.4667L21.5667 20.9L20.15 19.4833L17.3167 22.3L19.0167 24H13.3333ZM17.3333 18.6667H21.3333V17.3333H17.3333V18.6667ZM17.3333 16H21.3333V14.6667H17.3333V16ZM21.5667 24.6667L19.2 22.3L20.15 21.3667L21.5667 22.7833L24.4 19.95L25.3333 20.9L21.5667 24.6667ZM15.3333 18.6667C15.5222 18.6667 15.6806 18.6028 15.8083 18.475C15.9361 18.3472 16 18.1889 16 18C16 17.8111 15.9361 17.6528 15.8083 17.525C15.6806 17.3972 15.5222 17.3333 15.3333 17.3333C15.1444 17.3333 14.9861 17.3972 14.8583 17.525C14.7306 17.6528 14.6667 17.8111 14.6667 18C14.6667 18.1889 14.7306 18.3472 14.8583 18.475C14.9861 18.6028 15.1444 18.6667 15.3333 18.6667ZM15.3333 16C15.5222 16 15.6806 15.9361 15.8083 15.8083C15.9361 15.6806 16 15.5222 16 15.3333C16 15.1444 15.9361 14.9861 15.8083 14.8583C15.6806 14.7306 15.5222 14.6667 15.3333 14.6667C15.1444 14.6667 14.9861 14.7306 14.8583 14.8583C14.7306 14.9861 14.6667 15.1444 14.6667 15.3333C14.6667 15.5222 14.7306 15.6806 14.8583 15.8083C14.9861 15.9361 15.1444 16 15.3333 16Z" fill="white"/>
</g>
</svg>
