<svg width="96" height="20" viewBox="0 0 96 20" fill="none" xmlns="http://www.w3.org/2000/svg">
<path fill-rule="evenodd" clip-rule="evenodd" d="M20.7255 3.67333C20.7896 3.67618 20.8314 3.6778 20.8432 3.6778C20.9376 3.6778 21.0793 3.71283 21.0793 3.81791C21.117 3.90179 22.9304 13.0258 23.6605 16.7033L23.961 18.2141L23.9126 18.2216L15.7897 19.51L15.7924 19.4688L0.866211 17.4085C0.866211 17.4085 2.75536 6.3399 2.84981 5.98963C2.94213 5.47615 2.98933 5.4645 3.65272 5.30075L3.69993 5.28909C3.79439 5.28909 4.73896 5.07893 6.06136 4.76368C6.58088 3.15244 8.18665 0 11.5871 0C12.0122 0 12.5317 0.210163 12.9567 0.595461H13.0512C14.5153 0.595461 15.3182 1.50616 15.7905 2.52195C16.2628 2.41687 16.5934 2.34682 16.5934 2.34682C16.6084 2.34682 16.6295 2.34593 16.6548 2.34486C16.7248 2.3419 16.8274 2.33756 16.9264 2.34679C16.993 2.34734 17.0595 2.36514 17.109 2.38789C17.1278 2.39611 17.145 2.4057 17.1601 2.41687L18.7186 3.57276C18.7186 3.57276 20.2735 3.65322 20.7255 3.67333ZM14.9868 2.73263C14.7462 2.79955 14.4864 2.85226 14.2075 2.90886L14.2075 2.90887L14.2074 2.90887C14.0484 2.94115 13.8831 2.97469 13.7116 3.01285V2.80269C13.7116 2.1722 13.5699 1.68182 13.381 1.29652C14.1839 1.33155 14.7034 1.99706 14.9868 2.73263ZM12.862 3.11725C12.862 2.38168 12.7203 1.82124 12.5314 1.43595C11.6813 1.68114 10.7367 2.38168 10.2644 3.81779C11.1618 3.60763 12.0591 3.39746 12.862 3.22233V3.11725ZM11.4932 0.735649C11.6349 0.735649 11.7766 0.770676 11.9183 0.840731C10.832 1.22603 9.65131 2.17176 9.17902 4.09825C8.62613 4.23493 8.07323 4.35028 7.54279 4.46095L7.5425 4.46101L7.54166 4.46119C7.39282 4.49224 7.24576 4.52292 7.10096 4.5536C7.71493 3.08246 9.08456 0.735649 11.4932 0.735649ZM13.0983 7.0056L12.1065 9.21231C12.1065 9.21231 11.2092 8.86204 10.1701 8.86204C8.6116 8.86204 8.51715 9.59761 8.51715 9.77274C8.51715 10.1758 9.07494 10.4796 9.74783 10.8461C10.7706 11.4032 12.0593 12.1051 12.0593 13.5206C12.0593 15.3771 10.4535 16.568 8.32823 16.568C5.77788 16.568 4.45548 15.3771 4.45548 15.3771L5.11668 13.6958C5.11668 13.6958 6.48631 14.5715 7.6198 14.5715C8.37546 14.5715 8.65883 14.1511 8.65883 13.8009C8.65883 13.2164 8.09423 12.8818 7.46087 12.5065C6.65185 12.0271 5.73065 11.4812 5.73065 10.2631C5.73065 8.44171 7.47812 6.69036 11.0675 6.69036C12.4371 6.69036 13.0983 7.0056 13.0983 7.0056ZM81.8625 7.81102H84.0823L83.6572 9.52735H81.4375L79.7372 16.1475H76.5257L78.2259 9.56238H76.7146L77.1869 7.776H78.6982L78.7927 7.3907C79.0288 6.40994 79.5483 5.42918 80.6346 4.72864C81.4847 4.16821 82.6182 3.92302 83.7517 3.92302C84.9324 3.92302 85.4991 4.13318 85.4991 4.13318L84.8852 5.98961C84.8852 5.98961 84.4129 5.88453 83.8461 5.88453C82.8071 5.88453 82.1459 6.6201 81.957 7.42572L81.8625 7.81102ZM44.8827 7.63593C43.4658 7.63593 42.3796 8.1263 41.4822 8.8969H41.435L42.6629 4.09819H39.4514L36.3343 16.2176H39.5458L40.6321 12.0844C41.0572 10.5081 42.1434 9.56242 43.1352 9.56242C43.8436 9.56242 44.127 9.91269 44.127 10.4381C44.127 10.7533 44.0798 11.1737 43.9853 11.4889L42.7574 16.2176H46.0162L47.2913 11.3138C47.433 10.7884 47.5275 10.1929 47.5275 9.77258C47.4802 8.44155 46.5357 7.63593 44.8827 7.63593ZM33.4535 11.1386C32.6506 10.8234 32.2255 10.5431 32.2255 10.1578C32.2255 9.66746 32.7923 9.35222 33.7369 9.35222C34.7759 9.35222 35.7205 9.66746 35.7205 9.66746L36.4761 7.98616C36.4761 7.98616 35.8149 7.60087 33.7841 7.60087C30.9976 7.60087 29.0612 8.79179 29.0612 10.4381C29.0612 11.3838 29.9586 12.1194 31.1865 12.6097C32.1783 13.0301 32.5089 13.3103 32.5089 13.7306C32.5089 14.186 32.0366 14.5362 31.0921 14.5362C29.7224 14.5362 28.4945 14.0108 28.4945 14.0108L27.6916 15.6921C27.6916 15.6921 28.8723 16.2876 30.8559 16.2876C33.7369 16.2876 35.7677 15.2368 35.7677 13.3453C35.7205 12.3996 34.6814 11.699 33.4535 11.1386ZM48.3303 13.065C48.3303 10.2278 50.8806 7.63582 54.7062 7.63582C57.6816 7.63582 59.0512 9.21204 59.0512 10.9634C59.0512 13.8706 56.5009 16.3926 52.7226 16.3926C49.8416 16.3926 48.3303 14.9215 48.3303 13.065ZM53.1468 14.5357C52.0606 14.5357 51.5883 13.8351 51.5883 12.9945C51.5883 11.6284 52.5329 9.42172 54.2803 9.42172C55.4138 9.42172 55.7916 10.1573 55.7916 10.8578C55.7444 12.2939 54.7998 14.5357 53.1468 14.5357ZM63.8207 9.0369C63.8207 9.0369 65.0486 7.63582 67.2211 7.63582C69.5354 7.63582 70.4799 9.0369 70.4799 10.6482C70.4799 13.5554 68.024 16.3926 64.293 16.3926C63.065 16.3926 62.4038 16.0774 62.4038 16.0774H62.3566L61.4593 19.5801H58.2949L60.4674 10.9284C60.7508 9.94761 60.987 8.65161 61.1287 7.77593H63.9624L63.7735 9.0369H63.8207ZM64.152 14.5363C63.3019 14.5363 62.8296 14.186 62.8296 14.186L63.3491 11.9793C63.7269 10.5081 64.766 9.52738 65.8522 9.52738C66.844 9.52738 67.1274 10.1929 67.1274 10.8234C67.1746 12.3996 65.9467 14.5363 64.152 14.5363ZM73.22 5.56911C73.22 4.79852 74.0229 4.20305 75.062 4.20305C76.0065 4.20305 76.6677 4.72846 76.6677 5.39398C76.6205 6.26965 75.7704 6.76003 74.7786 6.76003H74.7314C73.834 6.76003 73.22 6.26965 73.22 5.56911ZM70.5746 16.1472H73.7861L75.9586 7.74069H72.7471L70.5746 16.1472ZM91.7337 7.8106C91.7337 7.8106 89.7501 11.5585 88.8527 13.5901H88.8055C88.7583 12.9246 88.0026 7.8106 88.0026 7.8106H84.6494L86.5858 15.5166C86.633 15.6917 86.5858 15.7968 86.5385 15.9019C86.1607 16.4273 85.5467 16.9527 84.7911 17.338C84.1771 17.6532 83.5159 17.8634 82.9964 18.0035L83.8937 20C84.5549 19.8949 85.8773 19.5096 87.0108 18.704C88.4749 17.6882 89.7973 16.112 91.2142 14.0104L95.1342 7.8106H91.7337Z" fill="#AEC8D2"/>
</svg>
