<svg width="83" height="20" viewBox="0 0 83 20" fill="none" xmlns="http://www.w3.org/2000/svg">
<path fill-rule="evenodd" clip-rule="evenodd" d="M11.0684 7.04764H20.6098C20.6098 7.04764 20.7794 7.55556 20.7794 8.44443C20.7794 12.6665 16.7084 15.4919 11.1533 15.4919C4.83476 15.4919 0.551758 11.6507 0.551758 7.71429C0.551758 3.68265 5.0892 -0.0315432 10.9836 0.000202032C15.6059 0.000202032 18.1502 2.09539 18.1502 2.09539L16.1996 3.61915C16.1996 3.61915 14.3337 2.09539 11.1108 2.09539C6.95506 2.09539 3.64739 4.57151 3.64739 7.77778C3.64739 11.0475 7.12468 13.3967 11.1108 13.3967C14.2065 13.3967 17.5142 12.0951 17.8534 9.14282H11.0684V7.04764ZM28.37 5.49198C24.4687 5.49198 21.6699 7.77763 21.6699 10.4442C21.6699 13.1743 24.3839 15.4917 28.4548 15.4917C32.1442 15.4917 35.1126 13.4283 35.1126 10.5077C35.0702 7.20622 31.5929 5.49198 28.37 5.49198ZM28.4132 7.49158C30.3215 7.49158 32.1449 8.66616 32.1449 10.5074C32.1449 12.3486 30.3639 13.5232 28.4132 13.5232C26.2929 13.5232 24.6391 12.2534 24.6391 10.4756C24.5967 8.76139 26.2505 7.49158 28.4132 7.49158ZM36.2587 10.444C36.2587 7.77742 39.0575 5.49177 42.9589 5.49177C46.1817 5.49177 49.659 7.20601 49.7014 10.5075C49.7014 13.4281 46.733 15.4915 43.0437 15.4915C38.9727 15.4915 36.2587 13.1741 36.2587 10.444ZM46.733 10.5074C46.733 8.66616 44.9095 7.49158 43.0013 7.49158C40.8386 7.49158 39.1847 8.76139 39.2271 10.4756C39.2271 12.2534 40.881 13.5232 43.0013 13.5232C44.952 13.5232 46.733 12.3486 46.733 10.5074ZM57.2491 5.5241C53.6446 5.5241 50.8458 7.87325 50.8458 10.5081C50.8458 13.4921 54.1111 15.5238 57.1643 15.5238C59.0726 15.5238 60.0479 14.9842 60.8537 14.3175V15.3016C60.8537 17.0159 59.4543 18.0635 57.334 18.0635C55.2985 18.0635 54.2807 16.9206 53.8991 16.2857L51.3123 17.0794C52.2028 18.5079 54.0263 19.9999 57.2916 19.9999C60.8537 19.9999 63.5676 18.3174 63.5676 14.7937V5.80981H60.7688V6.66693C60.0055 5.96853 58.8182 5.5241 57.2491 5.5241ZM57.5039 7.49238C59.2425 7.49238 61.066 8.6352 61.066 10.5399C61.066 12.5081 59.2849 13.5557 57.4614 13.5557C55.5532 13.5557 53.7721 12.3811 53.7721 10.5717C53.8145 8.60346 55.638 7.49238 57.5039 7.49238ZM69.8857 10.4758C69.8857 7.49171 72.7269 5.49177 76.1194 5.49177C78.7486 5.49177 80.7417 6.82506 81.6322 8.34883L82.0986 9.17421L73.151 11.9678C73.7023 12.7297 74.5504 13.4916 76.4162 13.4916C78.0701 13.4916 79.0878 12.8249 79.6815 12.1265L82.0138 13.3011C80.9961 14.3169 79.215 15.4915 76.4162 15.4915C73.0662 15.4915 69.8857 13.6185 69.8857 10.4758ZM78.7059 8.50708C78.2819 7.90392 77.4338 7.42774 76.204 7.42774C74.2957 7.42774 72.4298 8.91977 72.7691 10.38L78.7059 8.50708ZM68.5717 15.2068H65.6457V0.47698H68.5717V15.2068Z" fill="#AEC8D2"/>
</svg>
