<svg width="87" height="20" viewBox="0 0 87 20" fill="none" xmlns="http://www.w3.org/2000/svg">
<path fill-rule="evenodd" clip-rule="evenodd" d="M45.7582 5.01602C45.7582 5.72342 44.9751 6.33435 43.9744 6.33435C42.9738 6.33435 42.1907 5.75557 42.1907 5.01602C42.1907 4.27647 42.9303 3.69769 43.9744 3.69769C45.0186 3.762 45.7582 4.34078 45.7582 5.01602ZM38.492 7.65248C38.492 7.7811 38.492 7.97402 38.492 7.97402C38.492 7.97402 37.6654 7.17016 35.8816 7.17016C32.9232 7.17016 30.6174 8.84219 30.6174 11.1251C30.6174 13.4081 32.8797 15.0801 35.8816 15.0801C37.7089 15.0801 38.492 14.2441 38.492 14.2441V14.5978C38.492 14.7586 38.666 14.8872 38.8835 14.8872H41.0588V7.36309C41.0588 7.36309 39.0575 7.36309 38.8835 7.36309C38.666 7.36309 38.492 7.52386 38.492 7.65248ZM38.4923 12.4752C38.1007 12.9254 37.2741 13.3112 36.317 13.3112C34.5768 13.3112 33.2716 12.5073 33.2716 11.1569C33.2716 9.80638 34.6203 9.00252 36.317 9.00252C37.2741 9.00252 38.1443 9.38838 38.4923 9.83854V12.4752ZM42.7126 7.36242H45.323V14.8865H42.7126V7.36242ZM81.5632 7.1704C79.7795 7.1704 78.9529 7.97426 78.9529 7.97426V3.76204H76.3425V14.9196C76.3425 14.9196 78.3438 14.9196 78.5178 14.9196C78.7353 14.9196 78.9094 14.791 78.9094 14.6302V14.2765C78.9094 14.2765 79.736 15.1125 81.5197 15.1125C84.4781 15.1125 86.7839 13.4405 86.7839 11.1575C86.8274 8.84243 84.5216 7.1704 81.5632 7.1704ZM81.1283 13.2794C80.1277 13.2794 79.3446 12.8935 78.953 12.4434V9.74241C79.3446 9.35656 80.2147 8.9064 81.1283 8.9064C82.8685 8.9064 84.1737 9.71026 84.1737 11.0607C84.1737 12.4112 82.8685 13.2794 81.1283 13.2794ZM74.9929 10.4499V14.9515H72.3825V10.675C72.3825 9.42097 71.8605 8.93865 70.3813 8.93865C69.5982 8.93865 68.7716 9.22804 68.2495 9.6782V14.9194H65.6391V7.36309H67.6839C67.9014 7.36309 68.0755 7.49171 68.0755 7.65248V7.97402C68.8151 7.39524 69.8592 7.17016 70.8598 7.17016C71.991 7.17016 72.9481 7.39524 73.6877 7.87756C74.6448 8.45634 74.9929 9.16373 74.9929 10.4499ZM59.3318 7.1704C57.5481 7.1704 56.7215 7.97426 56.7215 7.97426V3.76204H54.1111V14.9196C54.1111 14.9196 56.1124 14.9196 56.2864 14.9196C56.504 14.9196 56.678 14.791 56.678 14.6302V14.2765C56.678 14.2765 57.5046 15.1125 59.2883 15.1125C62.2467 15.1125 64.5525 13.4405 64.5525 11.1575C64.596 8.84243 62.2902 7.1704 59.3318 7.1704ZM58.8969 13.2794C57.8963 13.2794 57.1132 12.8935 56.7216 12.4434V9.74241C57.1132 9.35656 57.9833 8.9064 58.8969 8.9064C60.6372 8.9064 61.9423 9.71026 61.9423 11.0607C61.9423 12.4112 60.6372 13.2794 58.8969 13.2794ZM51.8486 7.17016C52.6317 7.17016 53.0233 7.26663 53.0233 7.26663V9.03512C53.0233 9.03512 50.848 8.48849 49.4993 9.64605V14.9194H46.889V7.36309C46.889 7.36309 48.8902 7.36309 49.0642 7.36309C49.2818 7.36309 49.4558 7.49171 49.4558 7.65248V7.97402C49.9779 7.55602 51.0655 7.17016 51.8486 7.17016ZM24.8316 14.2444C24.7011 14.0193 24.5705 13.7299 24.44 13.537C24.2225 13.1833 24.005 12.8296 23.8309 12.508L23.7874 12.4759C21.9167 9.48553 19.9154 6.43087 17.7836 3.40836L17.6966 3.27974C17.4791 2.99035 17.2616 2.66881 17.044 2.34727C16.783 1.99357 16.522 1.60772 16.0869 1.25402C15.2168 0.450161 13.9551 0 12.6499 0C11.3013 0 10.0831 0.450161 9.16947 1.18971C8.73441 1.57556 8.42987 1.92926 8.16884 2.31511C7.95131 2.63666 7.73378 2.9582 7.51625 3.24759L7.42924 3.37621C5.34096 6.36656 3.29618 9.42122 1.42543 12.4437L1.38192 12.4759C1.2079 12.7974 0.990369 13.1511 0.77284 13.5048C0.642323 13.7299 0.511805 13.955 0.381287 14.2122C0.0332405 14.9518 -0.0972771 15.6592 0.0767464 16.3666C0.381287 17.8778 1.72997 19.1318 3.60072 19.6785C4.29681 19.9035 5.03641 20 5.77601 20C5.99354 20 6.25458 19.9678 6.47211 19.9678C7.38573 19.9035 8.29935 19.6785 9.16947 19.2926C10.3006 18.8424 11.3448 18.1672 12.5194 17.2026C13.6941 18.1672 14.7817 18.8103 15.8694 19.2926C16.783 19.6785 17.6966 19.9035 18.5667 19.9678C18.7843 20 19.0453 20 19.2628 20C20.0024 20 20.7855 19.9035 21.4381 19.6785C23.3524 19.1318 24.6576 17.8457 24.9621 16.3666C25.2666 15.6592 25.1796 14.9839 24.8316 14.2444ZM12.6073 15.2732C11.1281 13.9227 10.2145 12.6365 9.86645 11.5433C9.73594 11.0931 9.69243 10.6751 9.77944 10.3214C9.82295 9.99986 9.99697 9.71047 10.2145 9.48539C10.7366 8.93877 11.6067 8.61722 12.6073 8.61722C13.608 8.61722 14.5216 8.93877 15.0001 9.48539C15.2177 9.71047 15.3917 9.99986 15.4352 10.3214C15.5222 10.6751 15.4787 11.0931 15.3482 11.5433C15.0001 12.6044 14.043 13.8905 12.6073 15.2732ZM23.3953 16.2054C23.2212 17.2343 22.2641 18.1347 20.9154 18.5527C20.2628 18.7456 19.5667 18.8099 18.8707 18.7456C18.1746 18.6813 17.522 18.5205 16.8259 18.2311C15.8687 17.8453 14.8681 17.2022 13.737 16.3019C15.5207 14.6941 16.6083 13.1829 16.9999 11.8646C17.1739 11.2536 17.2174 10.6749 17.1304 10.1604C17.0434 9.64592 16.7824 9.19576 16.3908 8.80991C15.5642 7.90958 14.1285 7.39512 12.5623 7.39512C10.9961 7.39512 9.5604 7.94174 8.73379 8.80991C8.34223 9.19576 8.12471 9.67807 7.99419 10.1604C7.90718 10.6749 7.90718 11.2536 8.12471 11.8646C8.51626 13.1829 9.64741 14.6941 11.3876 16.3019C10.2565 17.2343 9.25586 17.8453 8.29873 18.2311C7.60264 18.5205 6.90654 18.6813 6.25395 18.7456C5.51435 18.8099 4.81826 18.7134 4.20918 18.5527C2.8605 18.1668 1.94687 17.2343 1.72934 16.2054C1.64233 15.6909 1.68584 15.2086 1.99038 14.6298C2.07739 14.4369 2.20791 14.244 2.33843 13.9868C2.51245 13.6652 2.72998 13.3115 2.94751 12.99L2.99101 12.9578C4.86177 9.96746 6.86304 6.9128 8.95132 3.9546L9.03833 3.82598C9.25586 3.53659 9.47339 3.21505 9.69092 2.89351C9.90845 2.57196 10.1695 2.28258 10.4305 2.02534C10.9961 1.54303 11.7792 1.28579 12.6058 1.28579C13.4324 1.28579 14.2155 1.54303 14.7811 2.02534C15.0856 2.28258 15.3032 2.57196 15.5207 2.89351C15.7382 3.1829 15.9558 3.50444 16.1733 3.82598L16.2603 3.9546C18.3051 6.94495 20.3063 9.99962 22.1771 12.9578V12.99C22.3946 13.3115 22.5686 13.6652 22.7862 13.9868C22.9167 14.2118 23.0472 14.4369 23.1342 14.6298C23.4388 15.1765 23.5258 15.6909 23.3953 16.2054Z" fill="#AEC8D2"/>
</svg>
