<svg width="36" height="36" viewBox="0 0 36 36" fill="none" xmlns="http://www.w3.org/2000/svg">
<rect width="36" height="36" rx="4" fill="#02B7FA"/>
<mask id="mask0_220_523" style="mask-type:alpha" maskUnits="userSpaceOnUse" x="10" y="10" width="16" height="16">
<rect x="10" y="10" width="16" height="16" fill="#D9D9D9"/>
</mask>
<g mask="url(#mask0_220_523)">
<path d="M12.667 24V17.75L11.467 18.6667L10.667 17.6L18.0003 12L25.3337 17.6L24.5337 18.65L23.3337 17.75V24H12.667ZM15.3337 20C15.1448 20 14.9864 19.9361 14.8587 19.8083C14.7309 19.6806 14.667 19.5222 14.667 19.3333C14.667 19.1444 14.7309 18.9861 14.8587 18.8583C14.9864 18.7306 15.1448 18.6667 15.3337 18.6667C15.5225 18.6667 15.6809 18.7306 15.8087 18.8583C15.9364 18.9861 16.0003 19.1444 16.0003 19.3333C16.0003 19.5222 15.9364 19.6806 15.8087 19.8083C15.6809 19.9361 15.5225 20 15.3337 20ZM18.0003 20C17.8114 20 17.6531 19.9361 17.5253 19.8083C17.3975 19.6806 17.3337 19.5222 17.3337 19.3333C17.3337 19.1444 17.3975 18.9861 17.5253 18.8583C17.6531 18.7306 17.8114 18.6667 18.0003 18.6667C18.1892 18.6667 18.3475 18.7306 18.4753 18.8583C18.6031 18.9861 18.667 19.1444 18.667 19.3333C18.667 19.5222 18.6031 19.6806 18.4753 19.8083C18.3475 19.9361 18.1892 20 18.0003 20ZM20.667 20C20.4781 20 20.3198 19.9361 20.192 19.8083C20.0642 19.6806 20.0003 19.5222 20.0003 19.3333C20.0003 19.1444 20.0642 18.9861 20.192 18.8583C20.3198 18.7306 20.4781 18.6667 20.667 18.6667C20.8559 18.6667 21.0142 18.7306 21.142 18.8583C21.2698 18.9861 21.3337 19.1444 21.3337 19.3333C21.3337 19.5222 21.2698 19.6806 21.142 19.8083C21.0142 19.9361 20.8559 20 20.667 20Z" fill="white"/>
</g>
</svg>
