<svg width="36" height="36" viewBox="0 0 36 36" fill="none" xmlns="http://www.w3.org/2000/svg">
<rect width="36" height="36" rx="4" fill="#02B7FA"/>
<mask id="mask0_220_740" style="mask-type:alpha" maskUnits="userSpaceOnUse" x="10" y="10" width="16" height="16">
<rect x="10" y="10" width="16" height="16" fill="#D9D9D9"/>
</mask>
<g mask="url(#mask0_220_740)">
<path d="M17.3333 24.4835V18.3835L12 15.3002V20.6502C12 20.8946 12.0583 21.1168 12.175 21.3168C12.2917 21.5168 12.4556 21.6779 12.6667 21.8002L17.3333 24.4835ZM18.6667 24.4835L23.3333 21.8002C23.5444 21.6779 23.7083 21.5168 23.825 21.3168C23.9417 21.1168 24 20.8946 24 20.6502V15.3002L18.6667 18.3835V24.4835ZM21.3167 15.3168L23.2833 14.1668L18.6667 11.5168C18.4556 11.3946 18.2333 11.3335 18 11.3335C17.7667 11.3335 17.5444 11.3946 17.3333 11.5168L16.0167 12.2668L21.3167 15.3168ZM18 17.2335L19.9833 16.1002L14.7 13.0335L12.7 14.1835L18 17.2335Z" fill="white"/>
</g>
</svg>
