<svg width="36" height="36" viewBox="0 0 36 36" fill="none" xmlns="http://www.w3.org/2000/svg">
<rect width="36" height="36" rx="4" fill="#02B7FA"/>
<mask id="mask0_220_694" style="mask-type:alpha" maskUnits="userSpaceOnUse" x="10" y="10" width="16" height="16">
<rect x="10" y="10" width="16" height="16" fill="#D9D9D9"/>
</mask>
<g mask="url(#mask0_220_694)">
<path d="M19.3337 23.9998V21.9498L23.017 18.2832C23.117 18.1832 23.2281 18.1109 23.3503 18.0665C23.4725 18.0221 23.5948 17.9998 23.717 17.9998C23.8503 17.9998 23.9781 18.0248 24.1003 18.0748C24.2225 18.1248 24.3337 18.1998 24.4337 18.2998L25.0503 18.9165C25.1392 19.0165 25.2087 19.1276 25.2587 19.2498C25.3087 19.3721 25.3337 19.4943 25.3337 19.6165C25.3337 19.7387 25.3114 19.8637 25.267 19.9915C25.2225 20.1193 25.1503 20.2332 25.0503 20.3332L21.3837 23.9998H19.3337ZM12.667 23.3332V21.4665C12.667 21.0887 12.7642 20.7415 12.9587 20.4248C13.1531 20.1082 13.4114 19.8665 13.7337 19.6998C14.4225 19.3554 15.1225 19.0971 15.8337 18.9248C16.5448 18.7526 17.267 18.6665 18.0003 18.6665C18.4114 18.6665 18.817 18.6915 19.217 18.7415C19.617 18.7915 20.017 18.8721 20.417 18.9832L18.0003 21.3998V23.3332H12.667ZM23.717 20.2665L24.3337 19.6165L23.717 18.9998L23.0837 19.6332L23.717 20.2665ZM18.0003 17.9998C17.267 17.9998 16.6392 17.7387 16.117 17.2165C15.5948 16.6943 15.3337 16.0665 15.3337 15.3332C15.3337 14.5998 15.5948 13.9721 16.117 13.4498C16.6392 12.9276 17.267 12.6665 18.0003 12.6665C18.7337 12.6665 19.3614 12.9276 19.8837 13.4498C20.4059 13.9721 20.667 14.5998 20.667 15.3332C20.667 16.0665 20.4059 16.6943 19.8837 17.2165C19.3614 17.7387 18.7337 17.9998 18.0003 17.9998Z" fill="white"/>
</g>
</svg>
