<svg width="46" height="47" viewBox="0 0 46 47" fill="none" xmlns="http://www.w3.org/2000/svg">
<g clip-path="url(#clip0_97_54380)">
<path d="M12.0409 0.522681C12.1477 0.522473 12.2546 0.522239 12.3615 0.52198C12.6542 0.521354 12.947 0.521118 13.2397 0.52095C13.5559 0.520704 13.872 0.520102 14.1882 0.519554C14.9513 0.518315 15.7143 0.51768 16.4774 0.51712C16.8373 0.516844 17.1973 0.516507 17.5572 0.516178C18.7547 0.515109 19.9523 0.514198 21.1498 0.513743C21.4603 0.513623 21.7708 0.513502 22.0812 0.513379C22.1584 0.513349 22.2356 0.513318 22.3151 0.513287C23.5637 0.512766 24.8124 0.511174 26.061 0.509132C27.3449 0.507049 28.6288 0.505921 29.9126 0.505721C30.6327 0.505585 31.3528 0.505041 32.0728 0.503429C32.6864 0.502059 33.2999 0.501562 33.9134 0.50217C34.2259 0.502454 34.5383 0.502347 34.8508 0.501116C36.0916 0.496506 37.2998 0.492745 38.5046 0.783327C38.5911 0.804002 38.5911 0.804002 38.6793 0.825094C39.8974 1.12134 41.0524 1.60492 42.0357 2.29171C42.0964 2.33376 42.0964 2.33376 42.1583 2.37665C44.2968 3.86738 45.6669 5.92498 45.9524 8.28359C46.1916 10.5039 45.5336 12.7964 43.8748 14.5473C43.8419 14.5821 43.809 14.6168 43.7751 14.6526C42.5108 15.9761 40.9464 16.9444 39.0471 17.4973C38.9894 17.5143 38.9316 17.5313 38.8721 17.5488C37.7543 17.8542 36.6504 17.9056 35.4867 17.8997C35.3357 17.8997 35.1848 17.8997 35.0339 17.8998C34.6281 17.8999 34.2224 17.8988 33.8167 17.8974C33.3912 17.8962 32.9656 17.8961 32.5401 17.8959C31.7362 17.8953 30.9322 17.8938 30.1282 17.8919C29.0405 17.8894 27.9528 17.8884 26.8652 17.8873C25.154 17.8855 23.4429 17.8818 21.7318 17.8783C21.7318 20.616 21.7318 23.3537 21.7318 26.1744C21.2353 26.1037 21.2353 26.1037 20.9905 26.0078C20.9355 25.9865 20.8805 25.9652 20.8238 25.9432C20.7653 25.92 20.7067 25.8968 20.6464 25.8729C20.5843 25.8488 20.5222 25.8246 20.4582 25.7996C20.2557 25.7207 20.0535 25.6412 19.8513 25.5616C19.7102 25.5065 19.569 25.4514 19.4278 25.3964C19.1467 25.2869 18.8658 25.1772 18.5849 25.0673C18.0994 24.8777 17.6123 24.691 17.1248 24.505C16.2813 24.1826 15.4386 23.8588 14.596 23.5347C13.7334 23.203 12.8707 22.8715 12.0075 22.5409C11.9224 22.5084 11.8373 22.4758 11.7496 22.4422C11.3237 22.2792 10.8976 22.1162 10.4715 21.9535C10.0741 21.8016 9.67689 21.6492 9.27986 21.4966C8.98269 21.3825 8.68494 21.2696 8.38691 21.1571C6.11345 20.2984 6.11345 20.2984 5.25329 19.7638C5.21249 19.7393 5.17169 19.7148 5.12965 19.6896C3.91813 18.9565 2.81423 18.0062 2.01644 16.9356C1.98274 16.8906 1.94903 16.8456 1.91431 16.7992C1.24633 15.8932 0.757698 14.9398 0.411803 13.911C0.391622 13.8515 0.391622 13.8515 0.371033 13.7909C0.104192 12.939 -0.00702923 12.0845 0.00141295 11.2052C0.00259845 11.0592 0.00141367 10.9133 1.20538e-05 10.7673C-0.00154101 9.86206 0.146979 8.97807 0.448585 8.10919C0.467338 8.05461 0.48609 8.00002 0.505411 7.94378C1.07895 6.32978 2.06016 4.95839 3.41417 3.73724C3.47894 3.67786 3.5437 3.61847 3.61044 3.55729C5.77791 1.60974 8.91538 0.522129 12.0409 0.522681Z" fill="#02B7FA"/>
<path d="M24.3008 19.7559C24.5619 19.8023 24.7295 19.8356 24.96 19.9294C25.0151 19.9516 25.0701 19.9738 25.1268 19.9967C25.1857 20.0208 25.2446 20.045 25.3053 20.0699C25.3675 20.0951 25.4298 20.1203 25.4939 20.1463C25.6971 20.2286 25.9 20.3114 26.1029 20.3942C26.2438 20.4513 26.3847 20.5084 26.5256 20.5655C26.8068 20.6794 27.0879 20.7935 27.3689 20.9076C27.873 21.1121 28.3784 21.314 28.8842 21.5153C28.9689 21.549 29.0536 21.5828 29.1409 21.6176C29.3084 21.6843 29.4758 21.751 29.6433 21.8176C30.0646 21.9854 30.4858 22.1533 30.9069 22.3213C31.0359 22.3728 31.0359 22.3728 31.1675 22.4252C32.0075 22.7604 32.8469 23.0968 33.6863 23.4331C34.3984 23.7184 35.1106 24.0037 35.8233 24.2879C35.9949 24.3564 36.1665 24.4249 36.3381 24.4935C36.7328 24.6512 37.1278 24.8082 37.5239 24.9633C39.1982 25.6188 40.7375 26.3076 42.0628 27.4502C42.1788 27.55 42.2962 27.6482 42.4136 27.7466C44.7266 29.712 45.9219 32.5251 45.9994 35.3407C46.0195 37.2798 45.5066 39.1388 44.4548 40.836C44.43 40.8767 44.4052 40.9174 44.3796 40.9594C42.8203 43.492 40.1067 45.2953 37.022 46.1078C35.9755 46.3693 34.952 46.486 33.8638 46.4836C33.7565 46.4839 33.6493 46.4842 33.542 46.4845C33.2503 46.4853 32.9586 46.4853 32.6669 46.4851C32.3511 46.4851 32.0353 46.4858 31.7195 46.4865C31.1019 46.4875 30.4844 46.4879 29.8668 46.488C29.3643 46.488 28.8619 46.4883 28.3594 46.4887C26.932 46.4899 25.5047 46.4905 24.0773 46.4904C24.0005 46.4904 23.9237 46.4904 23.8446 46.4904C23.7676 46.4904 23.6907 46.4904 23.6115 46.4904C22.3659 46.4903 21.1203 46.4916 19.8747 46.4934C18.593 46.4953 17.3113 46.4962 16.0296 46.4961C15.3111 46.496 14.5926 46.4964 13.8741 46.4978C13.2623 46.499 12.6505 46.4993 12.0387 46.4984C11.7271 46.498 11.4156 46.4979 11.1041 46.4991C9.8654 46.5034 8.65955 46.5061 7.45675 46.2042C7.3991 46.1899 7.34145 46.1756 7.28206 46.1608C5.88619 45.8073 4.67344 45.1923 3.55835 44.3712C3.51769 44.3414 3.47704 44.3116 3.43516 44.281C1.54154 42.872 0.304932 40.7175 0.027718 38.5447C0.0044602 38.1844 -0.000975109 37.8253 0.000134986 37.4645C0.000174986 37.4155 0.000214988 37.3665 0.0002562 37.316C0.00323316 36.5208 0.0721957 35.7767 0.321937 35.0095C0.336918 34.9607 0.351899 34.9119 0.367334 34.8617C0.756028 33.6169 1.45991 32.5312 2.38147 31.5398C2.41493 31.5036 2.44839 31.4674 2.48286 31.4302C4.06335 29.7475 6.48845 28.639 8.92784 28.3974C9.43104 28.3739 9.93554 28.3808 10.4392 28.3825C10.5908 28.3826 10.7424 28.3826 10.894 28.3825C11.3032 28.3825 11.7124 28.3832 12.1216 28.3841C12.5501 28.385 12.9786 28.385 13.4071 28.3852C14.2175 28.3856 15.0279 28.3867 15.8383 28.388C16.9341 28.3897 18.0299 28.3904 19.1257 28.3912C20.8507 28.3924 22.5758 28.395 24.3008 28.3974C24.3008 25.5457 24.3008 22.694 24.3008 19.7559Z" fill="#02B7FA"/>
</g>
<defs>
<clipPath id="clip0_97_54380">
<rect width="46" height="46" fill="white" transform="translate(0 0.5)"/>
</clipPath>
</defs>
</svg>
