<svg width="36" height="36" viewBox="0 0 36 36" fill="none" xmlns="http://www.w3.org/2000/svg">
<rect width="36" height="36" rx="4" fill="#02B7FA"/>
<mask id="mask0_220_687" style="mask-type:alpha" maskUnits="userSpaceOnUse" x="10" y="10" width="16" height="16">
<rect x="10" y="10" width="16" height="16" fill="#D9D9D9"/>
</mask>
<g mask="url(#mask0_220_687)">
<path d="M16.166 24.6663L15.8993 22.533C15.7549 22.4775 15.6188 22.4108 15.491 22.333C15.3632 22.2552 15.2382 22.1719 15.116 22.083L13.1326 22.9163L11.2993 19.7497L13.016 18.4497C13.0049 18.3719 12.9993 18.2969 12.9993 18.2247V17.7747C12.9993 17.7025 13.0049 17.6275 13.016 17.5497L11.2993 16.2497L13.1326 13.083L15.116 13.9163C15.2382 13.8275 15.366 13.7441 15.4993 13.6663C15.6326 13.5886 15.766 13.5219 15.8993 13.4663L16.166 11.333H19.8327L20.0993 13.4663C20.2438 13.5219 20.3799 13.5886 20.5077 13.6663C20.6354 13.7441 20.7604 13.8275 20.8827 13.9163L22.866 13.083L24.6993 16.2497L22.9826 17.5497C22.9938 17.6275 22.9993 17.7025 22.9993 17.7747V18.2247C22.9993 18.2969 22.9882 18.3719 22.966 18.4497L24.6827 19.7497L22.8493 22.9163L20.8827 22.083C20.7604 22.1719 20.6327 22.2552 20.4993 22.333C20.366 22.4108 20.2326 22.4775 20.0993 22.533L19.8327 24.6663H16.166ZM18.0326 20.333C18.6771 20.333 19.2271 20.1052 19.6826 19.6497C20.1382 19.1941 20.366 18.6441 20.366 17.9997C20.366 17.3552 20.1382 16.8052 19.6826 16.3497C19.2271 15.8941 18.6771 15.6663 18.0326 15.6663C17.3771 15.6663 16.8243 15.8941 16.3743 16.3497C15.9243 16.8052 15.6993 17.3552 15.6993 17.9997C15.6993 18.6441 15.9243 19.1941 16.3743 19.6497C16.8243 20.1052 17.3771 20.333 18.0326 20.333Z" fill="white"/>
</g>
</svg>
