<svg width="36" height="36" viewBox="0 0 36 36" fill="none" xmlns="http://www.w3.org/2000/svg">
<rect width="36" height="36" rx="4" fill="#02B7FA"/>
<mask id="mask0_220_306" style="mask-type:alpha" maskUnits="userSpaceOnUse" x="10" y="10" width="16" height="16">
<rect x="10" y="10" width="16" height="16" fill="#D9D9D9"/>
</mask>
<g mask="url(#mask0_220_306)">
<path d="M11.3335 24.6663V12.6663C11.3335 12.2997 11.4641 11.9858 11.7252 11.7247C11.9863 11.4636 12.3002 11.333 12.6668 11.333H23.3335C23.7002 11.333 24.0141 11.4636 24.2752 11.7247C24.5363 11.9858 24.6668 12.2997 24.6668 12.6663V20.6663C24.6668 21.033 24.5363 21.3469 24.2752 21.608C24.0141 21.8691 23.7002 21.9997 23.3335 21.9997H14.0002L11.3335 24.6663ZM15.3335 17.333C15.5224 17.333 15.6807 17.2691 15.8085 17.1413C15.9363 17.0136 16.0002 16.8552 16.0002 16.6663C16.0002 16.4775 15.9363 16.3191 15.8085 16.1913C15.6807 16.0636 15.5224 15.9997 15.3335 15.9997C15.1446 15.9997 14.9863 16.0636 14.8585 16.1913C14.7307 16.3191 14.6668 16.4775 14.6668 16.6663C14.6668 16.8552 14.7307 17.0136 14.8585 17.1413C14.9863 17.2691 15.1446 17.333 15.3335 17.333ZM18.0002 17.333C18.1891 17.333 18.3474 17.2691 18.4752 17.1413C18.6029 17.0136 18.6668 16.8552 18.6668 16.6663C18.6668 16.4775 18.6029 16.3191 18.4752 16.1913C18.3474 16.0636 18.1891 15.9997 18.0002 15.9997C17.8113 15.9997 17.6529 16.0636 17.5252 16.1913C17.3974 16.3191 17.3335 16.4775 17.3335 16.6663C17.3335 16.8552 17.3974 17.0136 17.5252 17.1413C17.6529 17.2691 17.8113 17.333 18.0002 17.333ZM20.6668 17.333C20.8557 17.333 21.0141 17.2691 21.1418 17.1413C21.2696 17.0136 21.3335 16.8552 21.3335 16.6663C21.3335 16.4775 21.2696 16.3191 21.1418 16.1913C21.0141 16.0636 20.8557 15.9997 20.6668 15.9997C20.4779 15.9997 20.3196 16.0636 20.1918 16.1913C20.0641 16.3191 20.0002 16.4775 20.0002 16.6663C20.0002 16.8552 20.0641 17.0136 20.1918 17.1413C20.3196 17.2691 20.4779 17.333 20.6668 17.333Z" fill="white"/>
</g>
</svg>
