<svg width="36" height="36" viewBox="0 0 36 36" fill="none" xmlns="http://www.w3.org/2000/svg">
<rect width="36" height="36" rx="4" fill="#02B7FA"/>
<mask id="mask0_220_137" style="mask-type:alpha" maskUnits="userSpaceOnUse" x="10" y="10" width="16" height="16">
<rect x="10" y="10" width="16" height="16" fill="#D9D9D9"/>
</mask>
<g mask="url(#mask0_220_137)">
<path d="M12.6668 24.0002C12.3002 24.0002 11.9863 23.8696 11.7252 23.6085C11.4641 23.3474 11.3335 23.0335 11.3335 22.6668V15.3335C11.3335 14.9668 11.4641 14.6529 11.7252 14.3918C11.9863 14.1307 12.3002 14.0002 12.6668 14.0002H15.3335V12.6668C15.3335 12.3002 15.4641 11.9863 15.7252 11.7252C15.9863 11.4641 16.3002 11.3335 16.6668 11.3335H19.3335C19.7002 11.3335 20.0141 11.4641 20.2752 11.7252C20.5363 11.9863 20.6668 12.3002 20.6668 12.6668V14.0002H23.3335C23.7002 14.0002 24.0141 14.1307 24.2752 14.3918C24.5363 14.6529 24.6668 14.9668 24.6668 15.3335V22.6668C24.6668 23.0335 24.5363 23.3474 24.2752 23.6085C24.0141 23.8696 23.7002 24.0002 23.3335 24.0002H12.6668ZM16.6668 14.0002H19.3335V12.6668H16.6668V14.0002Z" fill="white"/>
</g>
</svg>
